<?xml version="1.0" encoding="UTF-8" standalone="no"?>
<!-- Created with Inkscape (http://www.inkscape.org/) -->

<svg
   width="210mm"
   height="297mm"
   viewBox="0 0 210 297"
   version="1.1"
   id="svg5"
   xmlns="http://www.w3.org/2000/svg"
   xmlns:svg="http://www.w3.org/2000/svg">
  <defs
     id="defs2" />
  <g
     id="layer1">
    <path
       id="text113"
       style="font-style:normal;font-variant:normal;font-weight:normal;font-stretch:normal;font-size:184.135px;font-family:'Eras Demi ITC';-inkscape-font-specification:'Eras Demi ITC, Normal';font-variant-ligatures:normal;font-variant-caps:normal;font-variant-numeric:normal;font-variant-east-asian:normal;fill:#000000;fill-opacity:1;stroke-width:15.3446"
       transform="scale(0.95781312,1.044045)"
       d="m 68.888737,87.884756 c -0.0181,0.65163 -0.03794,1.271954 -0.05665,1.912044 l 0.0642,-1.90858 h 0.202862 c -0.08301,-0.0014 -0.126751,-0.002 -0.210415,-0.0035 z m 27.781771,0 c -0.0079,1.55e-4 -0.01426,3.39e-4 -0.02212,4.95e-4 l -0.183978,3.534535 z m 58.801232,0 c -0.23976,10.968935 -0.56991,21.009214 -0.98949,30.120024 l -1.8878,31.28863 c -0.65933,10.54936 -1.37888,17.95184 -2.1581,22.20753 -0.53945,2.81717 -1.37857,5.33492 -2.51742,7.55265 -1.07892,2.27771 -2.42753,4.28546 -4.0459,6.02371 -1.37861,1.43856 -2.9669,2.69717 -4.76509,3.77608 -2.21777,1.25873 -4.67532,2.24803 -7.37261,2.96731 -3.29668,0.83915 -6.77324,1.25869 -10.42956,1.25869 -5.75421,0 -10.87886,-0.92901 -15.37431,-2.78714 -4.43554,-1.85813 -7.822158,-4.82553 -10.159801,-8.90143 -2.277703,-4.07587 -3.416813,-10.15942 -3.416813,-18.25129 0,-0.95903 0.03016,-1.85839 0.0901,-2.69755 l 3.112521,-53.44172 -27.282711,-0.64989 0.0043,-0.13017 c -0.01638,-0.003 -0.03219,-0.007 -0.04802,-0.0104 l -0.870793,18.89772 c -0.359639,7.67225 -0.689793,13.48649 -0.989489,17.44252 l -0.808749,12.6775 c -0.299695,4.49548 -0.509746,8.18137 -0.629626,11.05848 -0.119879,2.81713 -0.179662,5.12489 -0.179662,6.92305 0,5.15482 0.749175,9.83053 2.247662,14.02628 1.318671,3.77621 3.086852,6.92298 5.304612,9.44045 2.757221,3.11683 6.473466,5.93403 11.148749,8.4515 4.735223,2.51747 9.920196,4.37549 15.554512,5.57428 6.593339,1.37861 13.666069,2.06796 21.218449,2.06796 7.37255,0 14.53574,-0.6592 21.48875,-1.97788 5.0349,-0.959 9.79978,-2.48745 14.29526,-4.58534 4.01593,-1.85813 7.52267,-4.07589 10.51966,-6.6533 2.33765,-1.97801 4.34549,-4.22592 6.0238,-6.74339 1.73825,-2.81713 3.08686,-5.87403 4.0459,-9.17068 1.13885,-3.95602 1.97797,-9.95014 2.51742,-17.98203 l 1.79824,-34.43561 2.78719,-43.336544 -13.12665,0.180166 c -3.29668,0 -8.33136,-0.06029 -15.10455,-0.180166 z" />
    <circle
       style="opacity:1;fill:#141e78;fill-opacity:1;stroke-width:0.176389"
       id="path4041"
       cx="78.786697"
       cy="96.497704"
       r="10" />
  </g>
</svg>
