<?xml version="1.0" encoding="UTF-8" standalone="no"?>
<!-- Created with Inkscape (http://www.inkscape.org/) -->

<svg
   width="172mm"
   height="106mm"
   viewBox="0 0 172 106"
   version="1.1"
   id="svg5258"
   sodipodi:docname="forte_logo.svg"
   inkscape:version="1.2.1 (9c6d41e410, 2022-07-14)"
   xmlns:inkscape="http://www.inkscape.org/namespaces/inkscape"
   xmlns:sodipodi="http://sodipodi.sourceforge.net/DTD/sodipodi-0.dtd"
   xmlns="http://www.w3.org/2000/svg"
   xmlns:svg="http://www.w3.org/2000/svg">
  <sodipodi:namedview
     id="namedview5260"
     pagecolor="#505050"
     bordercolor="#eeeeee"
     borderopacity="1"
     inkscape:showpageshadow="0"
     inkscape:pageopacity="0"
     inkscape:pagecheckerboard="0"
     inkscape:deskcolor="#505050"
     inkscape:document-units="mm"
     showgrid="false"
     inkscape:zoom="1.5536476"
     inkscape:cx="328.25977"
     inkscape:cy="239.43654"
     inkscape:window-width="1920"
     inkscape:window-height="1027"
     inkscape:window-x="1432"
     inkscape:window-y="-8"
     inkscape:window-maximized="1"
     inkscape:current-layer="layer1" />
  <defs
     id="defs5255" />
  <g
     inkscape:label="Ebene 1"
     inkscape:groupmode="layer"
     id="layer1">
    <path
       id="text6427"
       style="font-style:normal;font-variant:normal;font-weight:normal;font-stretch:normal;font-size:184.135px;font-family:Forte;-inkscape-font-specification:'Forte, Normal';font-variant-ligatures:normal;font-variant-caps:normal;font-variant-numeric:normal;font-variant-east-asian:normal;fill:#ffffff;fill-opacity:1;stroke:#ffffff;stroke-width:2;stroke-dasharray:none;stroke-opacity:1;image-rendering:auto"
       d="m 71.999396,9.2841878 c -0.06038,0.0142 -0.117177,0.029425 -0.176734,0.043925 9.13e-4,0.0126 0.0019,0.025341 0.0021,0.038241 z m -1.713074,0.5333008 c 0.06303,0.0565 0.117979,0.1244918 0.176217,0.1881024 l 0.02274,-0.010336 c -0.06154,-0.0632 -0.13785,-0.1347969 -0.198954,-0.1777669 z M 119.25439,21.039543 c -3.28178,0 -6.13089,0.888813 -8.54676,2.666504 -0.91165,0.683731 -1.82367,1.686729 -2.73523,3.008601 -0.86607,1.276301 -2.25636,3.669076 -4.17081,7.17889 -2.91717,5.424195 -6.631958,11.623845 -11.14454,18.597832 -4.466994,6.928462 -8.455901,12.649696 -11.965678,17.16226 -3.692113,4.740455 -6.062305,7.110677 -7.110677,7.110677 -0.957215,0 -1.435572,-0.843566 -1.435572,-2.530078 0,-1.139551 0.409947,-3.623943 1.230416,-7.452776 0.820467,-3.828874 1.9603,-8.478214 3.418913,-13.947985 1.458607,-5.469785 2.620559,-9.572348 3.486609,-12.30726 0.319062,-0.957221 0.592716,-1.754994 0.820622,-2.393135 l 0.47904,-1.435571 c 0.913601,-2.740842 2.115447,-5.923488 3.569808,-9.491411 -0.0239,0.0186 -0.0639,0.02544 -0.115755,0.0098 -0.0285,-0.009 -0.01427,-0.004 -0.04237,-0.01344 -0.0244,-0.01 -0.04898,-0.02069 -0.07338,-0.03049 l -0.0067,0.0186 -24.791252,-2.840653 c -1.45395,3.583024 -2.825853,7.265734 -4.112927,11.048938 -1.504197,4.421455 -2.985568,9.161749 -4.444173,14.221354 -4.284669,15.22425 -6.426998,26.757343 -6.426998,34.597371 0,6.062336 1.549779,10.780055 4.649328,14.153142 3.099548,3.327427 7.429979,4.991427 12.990939,4.991427 2.643724,0 5.424389,-0.75249 8.341609,-2.25671 2.91722,-1.549802 5.834695,-3.783179 8.751921,-6.700367 2.37024,-2.370263 4.854622,-5.401874 7.452775,-9.094018 2.598143,-3.692083 5.629312,-8.546636 9.093502,-14.563452 h 0.136942 c 0.13675,2.552593 0.273561,4.375969 0.410311,5.46995 0.54699,6.563727 1.709441,11.874523 3.487127,15.931327 1.54978,3.464163 3.48693,6.153315 5.81153,8.06772 2.37029,1.91447 4.87721,2.87218 7.52099,2.87218 2.0968,0 5.12834,-0.7525 9.09402,-2.25671 2.14221,-0.68374 3.57842,-1.572542 4.30774,-2.666503 0.50141,-0.63808 0.7519,-1.321721 0.7519,-2.051037 0,-1.002731 -0.47835,-3.715061 -1.43558,-8.136455 -0.77489,-3.281894 -1.39067,-6.404563 -1.84639,-9.367386 -0.45583,-2.962763 -0.79786,-5.993989 -1.02578,-9.093502 -0.22791,-3.099583 -0.3421,-6.56435 -0.3421,-10.393164 0,-8.432603 0.61567,-17.617591 1.8464,-27.554391 0.27349,-2.415853 0.41031,-4.01138 0.41031,-4.786271 0,-3.828894 -2.09708,-5.743319 -6.29057,-5.743319 z" />
    <text
       xml:space="preserve"
       style="font-style:normal;font-variant:normal;font-weight:normal;font-stretch:normal;font-size:55.005px;font-family:'Brush Script MT';-inkscape-font-specification:'Brush Script MT, Normal';font-variant-ligatures:normal;font-variant-caps:normal;font-variant-numeric:normal;font-variant-east-asian:normal;fill:#ffffff;fill-opacity:1;stroke-width:0.0790365"
       x="-0.85671145"
       y="77.132301"
       id="text9327"
       transform="scale(1.0044864,0.99553364)"><tspan
         sodipodi:role="line"
         id="tspan9325"
         style="font-style:normal;font-variant:normal;font-weight:normal;font-stretch:normal;font-size:55.005px;font-family:'Brush Script MT';-inkscape-font-specification:'Brush Script MT, Normal';font-variant-ligatures:normal;font-variant-caps:normal;font-variant-numeric:normal;font-variant-east-asian:normal;fill:#ffffff;fill-opacity:1;stroke-width:0.0790365"
         x="-0.85671145"
         y="77.132301">&lt;</tspan></text>
    <text
       xml:space="preserve"
       style="font-style:normal;font-variant:normal;font-weight:normal;font-stretch:normal;font-size:55.005px;font-family:'Brush Script MT';-inkscape-font-specification:'Brush Script MT, Normal';font-variant-ligatures:normal;font-variant-caps:normal;font-variant-numeric:normal;font-variant-east-asian:normal;fill:#ffffff;fill-opacity:1;stroke-width:0.0790367"
       x="132.72815"
       y="77.132309"
       id="text10164"
       transform="scale(1.0044861,0.99553394)"><tspan
         sodipodi:role="line"
         id="tspan10162"
         style="font-style:normal;font-variant:normal;font-weight:normal;font-stretch:normal;font-size:55.005px;font-family:'Brush Script MT';-inkscape-font-specification:'Brush Script MT, Normal';font-variant-ligatures:normal;font-variant-caps:normal;font-variant-numeric:normal;font-variant-east-asian:normal;fill:#ffffff;stroke-width:0.0790367"
         x="132.72815"
         y="77.132309">&gt;</tspan></text>
    <circle
       style="fill:#e67832;fill-opacity:1;stroke:#ffffff;stroke-width:0.00000001;stroke-dasharray:none;stroke-opacity:1"
       id="path4041"
       cx="75.346306"
       cy="11.484994"
       r="10"
       inkscape:highlight-color="#8a46aa" />
  </g>
</svg>
